  <svg width="231" height="51" viewBox="0 0 231 51" fill="none" xmlns="http://www.w3.org/2000/svg">
    <path
      d="M55.9999 31.2673C55.9999 33.9527 55.322 36.5913 54.034 38.9202C52.746 41.249 50.8927 43.187 48.659 44.541C46.4249 45.8953 43.8882 46.6182 41.3014 46.638C38.7145 46.6578 36.1678 45.9739 33.9149 44.6541C32.4002 45.8094 30.5988 46.4905 28.7234 46.6171C26.8479 46.7437 24.9766 46.3103 23.3307 45.3685C21.2889 46.2135 19.11 46.6446 16.9119 46.6386C7.58646 46.6386 0 39.0003 0 29.611C0 20.2217 7.58646 12.5834 16.9119 12.5834H16.9159C18.7618 9.38616 21.4994 6.846 24.7663 5.29895C28.0332 3.7519 31.6755 3.27089 35.2116 3.91954C38.7477 4.56819 42.0106 6.31595 44.569 8.93158C47.1271 11.5472 48.8603 14.9075 49.5388 18.5678C51.5373 19.9715 53.172 21.8643 54.2986 24.0791C55.4255 26.294 56.0098 28.7627 55.9999 31.2673ZM33.765 40.7143C34.1092 40.714 34.4453 40.8228 34.7286 41.0257C35.9859 41.9226 37.4039 42.5485 38.8984 42.8667C40.3929 43.1849 41.9337 43.1885 43.4297 42.8777C44.9254 42.5666 46.3461 41.9475 47.6076 41.0567C48.869 40.166 49.9455 39.0216 50.7733 37.6913C51.6011 36.3611 52.1635 34.8719 52.4275 33.3121C52.6913 31.7523 52.6508 30.1533 52.3091 28.61C51.9671 27.0666 51.3305 25.6101 50.4369 24.3265C49.5432 23.0429 48.4105 21.9585 47.1062 21.1373C46.8922 21.0024 46.7097 20.8201 46.5716 20.6034C46.4334 20.3868 46.343 20.1411 46.3069 19.884C45.8663 16.7697 44.4856 13.8807 42.3636 11.6323C40.2414 9.38397 37.4871 7.89208 34.4968 7.3712C31.5063 6.8503 28.4339 7.32725 25.7208 8.73341C23.008 10.1396 20.7947 12.4026 19.3989 15.197C19.248 15.5005 19.0151 15.7517 18.7287 15.92C18.4424 16.0882 18.115 16.1661 17.7866 16.1442C17.4507 16.1226 17.1722 16.1123 16.9105 16.1123C9.45881 16.1123 3.39632 22.1684 3.39632 29.6119C3.39632 37.0554 9.45964 43.1113 16.9105 43.1113C18.9287 43.1179 20.9239 42.6654 22.7556 41.7859C23.0236 41.6573 23.3191 41.6033 23.6131 41.6291C23.9072 41.6552 24.1896 41.7602 24.4326 41.934C25.6611 42.811 27.1444 43.2185 28.63 43.0871C30.1154 42.9558 31.511 42.2939 32.579 41.2139C32.8965 40.8931 33.322 40.7138 33.765 40.7143Z"
      fill="#0A36B5"
    />
    <path
      d="M19.1174 23.3745H16.5919C16.4914 23.3745 16.395 23.416 16.324 23.4897C16.2529 23.5635 16.213 23.6635 16.213 23.7678V29.929H16.2194L19.4959 26.5278V23.768C19.4959 23.6638 19.4561 23.5638 19.3851 23.49C19.3142 23.4162 19.2179 23.3746 19.1174 23.3745Z"
      fill="#0A36B5"
    />
    <path
      d="M29.4616 20.5007C29.0775 20.102 28.5564 19.878 28.0133 19.878C27.47 19.878 26.9491 20.102 26.565 20.5007L8.71079 39.035C10.7161 40.5571 13.0768 41.4957 15.5486 41.7531C18.0205 42.0108 20.5137 41.5783 22.7705 40.5003C23.0385 40.372 23.3338 40.3182 23.6278 40.344C23.9217 40.3701 24.2041 40.4751 24.4471 40.6486C25.6754 41.5256 27.1589 41.9331 28.6443 41.8018C30.1297 41.6705 31.5253 41.0083 32.5931 39.9283C32.8751 39.644 33.2434 39.4696 33.6351 39.4354C34.027 39.4011 34.4181 39.5088 34.7421 39.7402C36.6756 41.1226 38.9737 41.8511 41.3213 41.8253C43.669 41.7994 45.9517 41.021 47.8566 39.5964L29.4616 20.5007ZM27.8617 36.5525C27.8617 36.6324 27.831 36.709 27.7767 36.7656C27.7221 36.822 27.6483 36.8539 27.5714 36.8539H25.2121C25.1352 36.8539 25.0614 36.822 25.0068 36.7656C24.9523 36.709 24.9218 36.6324 24.9218 36.5525V34.1034C24.9218 34.0236 24.9523 33.9469 25.0068 33.8903C25.0614 33.8339 25.1352 33.8021 25.2121 33.8021H27.5714C27.6483 33.8021 27.7221 33.8339 27.7767 33.8903C27.831 33.9469 27.8617 34.0236 27.8617 34.1034V36.5525ZM27.8617 32.8435C27.8617 32.9233 27.831 33 27.7767 33.0566C27.7221 33.1132 27.6483 33.1448 27.5714 33.1448H25.2121C25.1352 33.1448 25.0614 33.1132 25.0068 33.0566C24.9523 33 24.9218 32.9233 24.9218 32.8435V30.3944C24.9218 30.3145 24.9523 30.2379 25.0068 30.1813C25.0614 30.1249 25.1352 30.093 25.2121 30.093H27.5714C27.6483 30.093 27.7221 30.1249 27.7767 30.1813C27.831 30.2379 27.8617 30.3145 27.8617 30.3944V32.8435ZM31.6456 36.5525C31.6456 36.6324 31.6149 36.709 31.5606 36.7656C31.506 36.822 31.4322 36.8539 31.3553 36.8539H28.996C28.9191 36.8539 28.8453 36.822 28.7907 36.7656C28.7362 36.709 28.7057 36.6324 28.7057 36.5525V34.1034C28.7057 34.0236 28.7362 33.9469 28.7907 33.8903C28.8453 33.8339 28.9191 33.8021 28.996 33.8021H31.3553C31.4322 33.8021 31.506 33.8339 31.5606 33.8903C31.6149 33.9469 31.6456 34.0236 31.6456 34.1034V36.5525ZM31.6456 32.8435C31.6456 32.9233 31.6149 33 31.5606 33.0566C31.506 33.1132 31.4322 33.1448 31.3553 33.1448H28.996C28.9191 33.1448 28.8453 33.1132 28.7907 33.0566C28.7362 33 28.7057 32.9233 28.7057 32.8435V30.3944C28.7057 30.3145 28.7362 30.2379 28.7907 30.1813C28.8453 30.1249 28.9191 30.093 28.996 30.093H31.3553C31.4322 30.093 31.506 30.1249 31.5606 30.1813C31.6149 30.2379 31.6456 30.3145 31.6456 30.3944V32.8435Z"
      fill="#0A36B5"
    />
    <path
      d="M72.65 25.25C71.2833 25.25 70.15 25.075 69.25 24.725C68.3667 24.375 67.6667 23.9333 67.15 23.4C66.6333 22.85 66.25 22.2917 66 21.725C65.75 21.1583 65.5917 20.65 65.525 20.2C65.4583 19.75 65.425 19.45 65.425 19.3H69.525C69.525 19.4167 69.5583 19.6083 69.625 19.875C69.6917 20.1417 69.825 20.4167 70.025 20.7C70.225 20.9667 70.525 21.2 70.925 21.4C71.3417 21.6 71.8917 21.7 72.575 21.7C73.4417 21.7 74.1333 21.4917 74.65 21.075C75.1833 20.6583 75.45 20.125 75.45 19.475C75.45 18.875 75.2167 18.3583 74.75 17.925C74.3 17.4917 73.625 17.275 72.725 17.275H70.225V13.95H72.775C73.5417 13.95 74.1333 13.75 74.55 13.35C74.9833 12.9333 75.2 12.45 75.2 11.9C75.2 11.3 74.9583 10.8 74.475 10.4C73.9917 9.98333 73.3583 9.775 72.575 9.775C71.975 9.775 71.4833 9.88333 71.1 10.1C70.7333 10.3167 70.45 10.575 70.25 10.875C70.0667 11.175 69.9417 11.4667 69.875 11.75C69.8083 12.0167 69.775 12.2083 69.775 12.325H65.775C65.775 12.175 65.8083 11.875 65.875 11.425C65.9583 10.9583 66.1167 10.4333 66.35 9.85C66.5833 9.26667 66.95 8.7 67.45 8.15C67.95 7.6 68.6167 7.15 69.45 6.8C70.2833 6.43333 71.3417 6.25 72.625 6.25C73.5083 6.25 74.35 6.36667 75.15 6.6C75.9667 6.83333 76.7 7.175 77.35 7.625C78 8.075 78.5083 8.625 78.875 9.275C79.2583 9.925 79.45 10.6583 79.45 11.475C79.45 12.2583 79.2917 12.925 78.975 13.475C78.6583 14.025 78.2667 14.475 77.8 14.825C77.35 15.1583 76.925 15.3833 76.525 15.5V15.675C77.075 15.875 77.6 16.15 78.1 16.5C78.6 16.85 79 17.2917 79.3 17.825C79.6167 18.3583 79.775 19 79.775 19.75C79.775 20.9167 79.4417 21.9083 78.775 22.725C78.125 23.5417 77.2583 24.1667 76.175 24.6C75.0917 25.0333 73.9167 25.25 72.65 25.25Z"
      fill="#0A36B5"
    />
    <path
      d="M90.9963 25.25C89.463 25.25 88.113 24.9833 86.9463 24.45C85.7796 23.9 84.8046 23.175 84.0213 22.275C83.2546 21.3583 82.6713 20.3333 82.2713 19.2C81.888 18.0667 81.6963 16.9083 81.6963 15.725C81.6963 14.5583 81.888 13.4083 82.2713 12.275C82.6713 11.1417 83.2546 10.125 84.0213 9.225C84.8046 8.325 85.7796 7.60833 86.9463 7.075C88.113 6.525 89.463 6.25 90.9963 6.25C92.313 6.25 93.4296 6.41667 94.3463 6.75C95.2796 7.06667 96.0546 7.49167 96.6713 8.025C97.3046 8.54167 97.8046 9.09167 98.1713 9.675C98.5546 10.2417 98.838 10.7833 99.0213 11.3C99.2046 11.8167 99.3213 12.2417 99.3713 12.575C99.438 12.9083 99.4713 13.075 99.4713 13.075H95.1963C95.1963 13.075 95.1463 12.925 95.0463 12.625C94.963 12.325 94.7796 11.9833 94.4963 11.6C94.2296 11.2 93.8213 10.85 93.2713 10.55C92.7213 10.25 91.9796 10.1 91.0463 10.1C89.963 10.1 89.0546 10.375 88.3213 10.925C87.6046 11.475 87.063 12.1833 86.6963 13.05C86.3463 13.9 86.1713 14.7917 86.1713 15.725C86.1713 16.6583 86.3463 17.5583 86.6963 18.425C87.063 19.2917 87.6046 20 88.3213 20.55C89.0546 21.1 89.963 21.375 91.0463 21.375C91.9796 21.375 92.7213 21.225 93.2713 20.925C93.8213 20.625 94.2296 20.2833 94.4963 19.9C94.7796 19.5167 94.963 19.175 95.0463 18.875C95.1463 18.575 95.1963 18.425 95.1963 18.425H99.4713C99.4713 18.425 99.438 18.5917 99.3713 18.925C99.3213 19.2417 99.2046 19.6667 99.0213 20.2C98.838 20.7167 98.5546 21.2667 98.1713 21.85C97.8046 22.4167 97.3046 22.9667 96.6713 23.5C96.0546 24.0167 95.2796 24.4417 94.3463 24.775C93.4296 25.0917 92.313 25.25 90.9963 25.25ZM101.953 25V6H106.228V25H101.953ZM115.753 25.25C114.57 25.25 113.545 25.0583 112.678 24.675C111.811 24.275 111.086 23.75 110.503 23.1C109.936 22.4333 109.511 21.6917 109.228 20.875C108.961 20.0583 108.828 19.2167 108.828 18.35C108.828 17.5167 108.961 16.6917 109.228 15.875C109.495 15.0583 109.903 14.325 110.453 13.675C111.003 13.0083 111.703 12.4833 112.553 12.1C113.42 11.7 114.445 11.5 115.628 11.5C116.895 11.5 118.003 11.775 118.953 12.325C119.92 12.8583 120.67 13.65 121.203 14.7C121.753 15.7333 122.028 16.9917 122.028 18.475V19.475H113.128C113.178 20.1583 113.42 20.7583 113.853 21.275C114.303 21.775 114.936 22.025 115.753 22.025C116.37 22.025 116.836 21.9167 117.153 21.7C117.486 21.4667 117.711 21.2333 117.828 21C117.945 20.7667 118.003 20.65 118.003 20.65H121.928C121.928 20.65 121.886 20.8083 121.803 21.125C121.72 21.425 121.561 21.8083 121.328 22.275C121.095 22.725 120.753 23.1833 120.303 23.65C119.853 24.1 119.253 24.4833 118.503 24.8C117.77 25.1 116.853 25.25 115.753 25.25ZM113.103 17H117.928C117.895 16.2167 117.653 15.625 117.203 15.225C116.77 14.825 116.22 14.625 115.553 14.625C114.903 14.625 114.345 14.825 113.878 15.225C113.428 15.625 113.17 16.2167 113.103 17ZM130.056 11.5C130.923 11.5 131.623 11.6417 132.156 11.925C132.706 12.2083 133.115 12.5 133.381 12.8C133.665 13.0833 133.823 13.2583 133.856 13.325H134.056V11.75H138.331V25H134.056V23.425H133.856C133.823 23.4917 133.665 23.675 133.381 23.975C133.115 24.275 132.706 24.5667 132.156 24.85C131.623 25.1167 130.923 25.25 130.056 25.25C129.09 25.25 128.248 25.0583 127.531 24.675C126.815 24.275 126.215 23.75 125.731 23.1C125.248 22.4333 124.89 21.6917 124.656 20.875C124.423 20.0583 124.306 19.225 124.306 18.375C124.306 17.525 124.423 16.6917 124.656 15.875C124.89 15.0583 125.248 14.325 125.731 13.675C126.215 13.0083 126.815 12.4833 127.531 12.1C128.248 11.7 129.09 11.5 130.056 11.5ZM131.406 14.925C130.79 14.925 130.273 15.1 129.856 15.45C129.44 15.7833 129.131 16.2167 128.931 16.75C128.731 17.2667 128.631 17.8083 128.631 18.375C128.631 18.9417 128.731 19.4917 128.931 20.025C129.131 20.5417 129.44 20.975 129.856 21.325C130.273 21.6583 130.79 21.825 131.406 21.825C132.023 21.825 132.531 21.6583 132.931 21.325C133.348 20.975 133.656 20.5417 133.856 20.025C134.073 19.4917 134.181 18.9417 134.181 18.375C134.181 17.8083 134.073 17.2667 133.856 16.75C133.656 16.2167 133.348 15.7833 132.931 15.45C132.531 15.1 132.023 14.925 131.406 14.925ZM141.131 25V11.75H145.406V13.625H145.531C145.698 13.3583 145.923 13.0583 146.206 12.725C146.506 12.3917 146.898 12.1083 147.381 11.875C147.881 11.625 148.498 11.5 149.231 11.5C150.298 11.5 151.148 11.7417 151.781 12.225C152.431 12.7083 152.898 13.325 153.181 14.075C153.465 14.8083 153.606 15.5667 153.606 16.35V25H149.331V17.15C149.331 16.5833 149.181 16.0833 148.881 15.65C148.581 15.2 148.09 14.975 147.406 14.975C146.656 14.975 146.131 15.225 145.831 15.725C145.548 16.2083 145.406 16.7417 145.406 17.325V25H141.131ZM158.792 10.175C158.075 10.175 157.483 9.94167 157.017 9.475C156.55 9.00833 156.317 8.45833 156.317 7.825C156.317 7.15833 156.55 6.59167 157.017 6.125C157.483 5.65833 158.075 5.425 158.792 5.425C159.508 5.425 160.1 5.65833 160.567 6.125C161.033 6.59167 161.267 7.15833 161.267 7.825C161.267 8.45833 161.033 9.00833 160.567 9.475C160.1 9.94167 159.508 10.175 158.792 10.175ZM156.642 25V11.75H160.917V25H156.642ZM163.958 25V11.75H168.233V13.625H168.358C168.525 13.3583 168.75 13.0583 169.033 12.725C169.333 12.3917 169.725 12.1083 170.208 11.875C170.708 11.625 171.325 11.5 172.058 11.5C173.125 11.5 173.975 11.7417 174.608 12.225C175.258 12.7083 175.725 13.325 176.008 14.075C176.292 14.8083 176.433 15.5667 176.433 16.35V25H172.158V17.15C172.158 16.5833 172.008 16.0833 171.708 15.65C171.408 15.2 170.917 14.975 170.233 14.975C169.483 14.975 168.958 15.225 168.658 15.725C168.375 16.2083 168.233 16.7417 168.233 17.325V25H163.958ZM185.874 30.325C184.624 30.325 183.59 30.1667 182.774 29.85C181.957 29.55 181.307 29.1667 180.824 28.7C180.357 28.25 180.015 27.7917 179.799 27.325C179.582 26.875 179.44 26.4917 179.374 26.175C179.324 25.875 179.299 25.725 179.299 25.725H183.424C183.424 25.725 183.474 25.8333 183.574 26.05C183.69 26.2667 183.915 26.4833 184.249 26.7C184.599 26.9333 185.124 27.05 185.824 27.05C186.724 27.05 187.407 26.7917 187.874 26.275C188.357 25.7583 188.599 25.0417 188.599 24.125V22.75H188.399C188.232 23.0167 187.982 23.3 187.649 23.6C187.332 23.9 186.924 24.1583 186.424 24.375C185.924 24.575 185.324 24.675 184.624 24.675C183.657 24.675 182.807 24.4917 182.074 24.125C181.357 23.7583 180.749 23.2583 180.249 22.625C179.765 21.9917 179.399 21.2833 179.149 20.5C178.915 19.7167 178.799 18.9167 178.799 18.1C178.799 17.2667 178.915 16.4583 179.149 15.675C179.399 14.8917 179.765 14.1917 180.249 13.575C180.749 12.9417 181.357 12.4417 182.074 12.075C182.807 11.6917 183.657 11.5 184.624 11.5C185.324 11.5 185.924 11.6083 186.424 11.825C186.924 12.025 187.34 12.275 187.674 12.575C188.007 12.875 188.249 13.1583 188.399 13.425H188.599V11.75H192.874V24.125C192.874 25.1917 192.624 26.1917 192.124 27.125C191.64 28.075 190.882 28.8417 189.849 29.425C188.832 30.025 187.507 30.325 185.874 30.325ZM185.899 21.35C186.532 21.35 187.057 21.1917 187.474 20.875C187.89 20.5583 188.199 20.15 188.399 19.65C188.615 19.15 188.724 18.6333 188.724 18.1C188.724 17.5333 188.615 17.0083 188.399 16.525C188.199 16.025 187.89 15.6167 187.474 15.3C187.057 14.9833 186.532 14.825 185.899 14.825C185.282 14.825 184.765 14.9833 184.349 15.3C183.932 15.6167 183.615 16.025 183.399 16.525C183.182 17.0083 183.074 17.5333 183.074 18.1C183.074 18.6333 183.182 19.15 183.399 19.65C183.615 20.15 183.932 20.5583 184.349 20.875C184.765 21.1917 185.282 21.35 185.899 21.35Z"
      fill="#111D15"
    />
    <path
      d="M68.86 47.6083C68.164 47.6083 67.552 47.4803 67.024 47.2243C66.496 46.9603 66.056 46.6123 65.704 46.1803C65.36 45.7403 65.1 45.2523 64.924 44.7163C64.748 44.1723 64.66 43.6163 64.66 43.0483C64.66 42.4803 64.748 41.9243 64.924 41.3803C65.1 40.8363 65.36 40.3483 65.704 39.9163C66.056 39.4763 66.496 39.1283 67.024 38.8723C67.552 38.6163 68.164 38.4883 68.86 38.4883C69.436 38.4883 69.928 38.5643 70.336 38.7163C70.752 38.8603 71.096 39.0483 71.368 39.2803C71.648 39.5123 71.872 39.7603 72.04 40.0243C72.216 40.2883 72.344 40.5363 72.424 40.7683C72.512 41.0003 72.568 41.1923 72.592 41.3443C72.624 41.4883 72.64 41.5603 72.64 41.5603H71.464C71.464 41.5603 71.448 41.4963 71.416 41.3683C71.384 41.2323 71.32 41.0683 71.224 40.8763C71.128 40.6763 70.984 40.4763 70.792 40.2763C70.6 40.0763 70.348 39.9123 70.036 39.7843C69.724 39.6483 69.336 39.5803 68.872 39.5803C68.368 39.5803 67.928 39.6803 67.552 39.8803C67.176 40.0723 66.86 40.3363 66.604 40.6723C66.356 41.0003 66.168 41.3723 66.04 41.7883C65.92 42.1963 65.86 42.6163 65.86 43.0483C65.86 43.4803 65.92 43.9043 66.04 44.3203C66.168 44.7283 66.356 45.1003 66.604 45.4363C66.86 45.7643 67.176 46.0283 67.552 46.2283C67.928 46.4203 68.368 46.5163 68.872 46.5163C69.336 46.5163 69.724 46.4483 70.036 46.3123C70.348 46.1763 70.6 46.0123 70.792 45.8203C70.984 45.6203 71.128 45.4243 71.224 45.2323C71.32 45.0323 71.384 44.8643 71.416 44.7283C71.448 44.5923 71.464 44.5243 71.464 44.5243H72.64C72.64 44.5243 72.624 44.6003 72.592 44.7523C72.568 44.8963 72.512 45.0883 72.424 45.3283C72.344 45.5603 72.216 45.8083 72.04 46.0723C71.872 46.3283 71.648 46.5763 71.368 46.8163C71.096 47.0483 70.752 47.2403 70.336 47.3923C69.928 47.5363 69.436 47.6083 68.86 47.6083ZM74.2647 47.4883L74.2767 38.3683H75.4047V47.4883H74.2647ZM80.0953 47.6083C79.5753 47.6083 79.1233 47.5163 78.7393 47.3323C78.3633 47.1403 78.0513 46.8843 77.8033 46.5643C77.5633 46.2443 77.3833 45.8923 77.2633 45.5083C77.1433 45.1163 77.0833 44.7163 77.0833 44.3083C77.0833 43.9083 77.1393 43.5123 77.2513 43.1203C77.3713 42.7283 77.5513 42.3723 77.7913 42.0523C78.0393 41.7323 78.3473 41.4803 78.7153 41.2963C79.0913 41.1043 79.5353 41.0083 80.0473 41.0083C80.5913 41.0083 81.0713 41.1323 81.4873 41.3803C81.9033 41.6283 82.2313 41.9963 82.4713 42.4843C82.7113 42.9723 82.8313 43.5843 82.8313 44.3203V44.6563H78.2353C78.2593 45.0163 78.3433 45.3483 78.4873 45.6523C78.6393 45.9483 78.8513 46.1883 79.1233 46.3723C79.3953 46.5483 79.7193 46.6363 80.0953 46.6363C80.4233 46.6363 80.6873 46.5843 80.8873 46.4803C81.0953 46.3683 81.2593 46.2403 81.3793 46.0963C81.4993 45.9523 81.5793 45.8283 81.6193 45.7243C81.6673 45.6123 81.6913 45.5563 81.6913 45.5563H82.7593C82.7593 45.5563 82.7393 45.6283 82.6993 45.7723C82.6593 45.9083 82.5873 46.0763 82.4833 46.2763C82.3793 46.4763 82.2273 46.6803 82.0273 46.8883C81.8273 47.0883 81.5713 47.2603 81.2593 47.4043C80.9473 47.5403 80.5593 47.6083 80.0953 47.6083ZM78.2473 43.7683H81.7153C81.6993 43.3523 81.6113 43.0163 81.4513 42.7603C81.2913 42.4963 81.0873 42.3003 80.8393 42.1723C80.5913 42.0443 80.3273 41.9803 80.0473 41.9803C79.5433 41.9803 79.1313 42.1443 78.8113 42.4723C78.4913 42.7923 78.3033 43.2243 78.2473 43.7683ZM87.0883 41.0083C87.4883 41.0083 87.8243 41.0723 88.0963 41.2003C88.3683 41.3283 88.5883 41.4803 88.7563 41.6563C88.9243 41.8243 89.0523 41.9843 89.1403 42.1363H89.2123V41.1283H90.3523V47.4883H89.2123V46.4803H89.1403C89.0523 46.6323 88.9243 46.7963 88.7563 46.9723C88.5883 47.1483 88.3683 47.3003 88.0963 47.4283C87.8243 47.5483 87.4883 47.6083 87.0883 47.6083C86.6083 47.6083 86.1883 47.5163 85.8283 47.3323C85.4683 47.1403 85.1683 46.8883 84.9283 46.5763C84.6883 46.2563 84.5083 45.9003 84.3883 45.5083C84.2683 45.1163 84.2083 44.7163 84.2083 44.3083C84.2083 43.9003 84.2683 43.5003 84.3883 43.1083C84.5083 42.7163 84.6883 42.3643 84.9283 42.0523C85.1683 41.7323 85.4683 41.4803 85.8283 41.2963C86.1883 41.1043 86.6083 41.0083 87.0883 41.0083ZM87.2803 41.9803C86.8563 41.9803 86.5003 42.0963 86.2123 42.3283C85.9243 42.5523 85.7083 42.8403 85.5643 43.1923C85.4283 43.5443 85.3603 43.9163 85.3603 44.3083C85.3603 44.6923 85.4283 45.0643 85.5643 45.4243C85.7083 45.7763 85.9243 46.0683 86.2123 46.3003C86.5003 46.5243 86.8563 46.6363 87.2803 46.6363C87.7043 46.6363 88.0563 46.5243 88.3363 46.3003C88.6243 46.0683 88.8363 45.7763 88.9723 45.4243C89.1163 45.0643 89.1883 44.6923 89.1883 44.3083C89.1883 43.9163 89.1163 43.5443 88.9723 43.1923C88.8363 42.8403 88.6243 42.5523 88.3363 42.3283C88.0563 42.0963 87.7043 41.9803 87.2803 41.9803ZM92.0275 47.4883V41.1283H93.1675V42.0523H93.2395C93.2955 41.9563 93.3875 41.8243 93.5155 41.6563C93.6515 41.4883 93.8435 41.3403 94.0915 41.2123C94.3395 41.0763 94.6515 41.0083 95.0275 41.0083C95.4915 41.0083 95.8875 41.1163 96.2155 41.3323C96.5435 41.5403 96.7915 41.8243 96.9595 42.1843C97.1355 42.5443 97.2235 42.9483 97.2235 43.3963V47.4883H96.0835V43.4683C96.0835 43.0443 95.9635 42.6923 95.7235 42.4123C95.4915 42.1323 95.1515 41.9923 94.7035 41.9923C94.3435 41.9923 94.0515 42.0843 93.8275 42.2683C93.6035 42.4443 93.4355 42.6803 93.3235 42.9763C93.2195 43.2643 93.1675 43.5723 93.1675 43.9003V47.4883H92.0275ZM99.6504 39.9163C99.4344 39.9163 99.2544 39.8443 99.1104 39.7003C98.9744 39.5563 98.9064 39.3843 98.9064 39.1843C98.9064 38.9763 98.9744 38.8003 99.1104 38.6563C99.2544 38.5123 99.4344 38.4403 99.6504 38.4403C99.8584 38.4403 100.034 38.5123 100.178 38.6563C100.322 38.8003 100.394 38.9763 100.394 39.1843C100.394 39.3843 100.322 39.5563 100.178 39.7003C100.034 39.8443 99.8584 39.9163 99.6504 39.9163ZM99.0864 47.4883V41.1283H100.226V47.4883H99.0864ZM102.07 47.4883V41.1283H103.21V42.0523H103.282C103.338 41.9563 103.43 41.8243 103.558 41.6563C103.694 41.4883 103.886 41.3403 104.134 41.2123C104.382 41.0763 104.694 41.0083 105.07 41.0083C105.534 41.0083 105.93 41.1163 106.258 41.3323C106.586 41.5403 106.834 41.8243 107.002 42.1843C107.178 42.5443 107.266 42.9483 107.266 43.3963V47.4883H106.126V43.4683C106.126 43.0443 106.006 42.6923 105.766 42.4123C105.534 42.1323 105.194 41.9923 104.746 41.9923C104.386 41.9923 104.094 42.0843 103.87 42.2683C103.646 42.4443 103.478 42.6803 103.366 42.9763C103.262 43.2643 103.21 43.5723 103.21 43.9003V47.4883H102.07ZM112.009 50.0083C111.481 50.0083 111.041 49.9363 110.689 49.7923C110.337 49.6563 110.053 49.4803 109.837 49.2643C109.629 49.0563 109.473 48.8483 109.369 48.6403C109.265 48.4323 109.197 48.2563 109.165 48.1123C109.133 47.9763 109.117 47.9083 109.117 47.9083H110.257C110.257 47.9083 110.277 47.9643 110.317 48.0763C110.357 48.1883 110.433 48.3163 110.545 48.4603C110.665 48.6043 110.841 48.7323 111.073 48.8443C111.305 48.9563 111.617 49.0123 112.009 49.0123C112.473 49.0123 112.837 48.9203 113.101 48.7363C113.365 48.5603 113.553 48.3283 113.665 48.0403C113.785 47.7523 113.845 47.4483 113.845 47.1283V46.3963H113.785C113.705 46.5323 113.577 46.6883 113.401 46.8643C113.233 47.0323 113.009 47.1803 112.729 47.3083C112.449 47.4283 112.105 47.4883 111.697 47.4883C111.217 47.4883 110.797 47.3963 110.437 47.2123C110.077 47.0283 109.777 46.7803 109.537 46.4683C109.305 46.1563 109.129 45.8083 109.009 45.4243C108.889 45.0403 108.829 44.6483 108.829 44.2483C108.829 43.8483 108.889 43.4563 109.009 43.0723C109.129 42.6883 109.305 42.3403 109.537 42.0283C109.777 41.7163 110.077 41.4683 110.437 41.2843C110.797 41.1003 111.217 41.0083 111.697 41.0083C112.105 41.0083 112.449 41.0723 112.729 41.2003C113.009 41.3203 113.233 41.4643 113.401 41.6323C113.577 41.8003 113.705 41.9563 113.785 42.1003H113.845V41.1283H114.985V47.1163C114.985 48.0043 114.725 48.7083 114.205 49.2283C113.693 49.7483 112.961 50.0083 112.009 50.0083ZM111.913 46.5163C112.337 46.5163 112.689 46.4083 112.969 46.1923C113.257 45.9683 113.469 45.6843 113.605 45.3403C113.749 44.9963 113.821 44.6323 113.821 44.2483C113.821 43.8643 113.749 43.5003 113.605 43.1563C113.469 42.8043 113.257 42.5203 112.969 42.3043C112.689 42.0883 112.337 41.9803 111.913 41.9803C111.489 41.9803 111.133 42.0883 110.845 42.3043C110.557 42.5203 110.341 42.8043 110.197 43.1563C110.061 43.5003 109.993 43.8643 109.993 44.2483C109.993 44.6323 110.061 44.9963 110.197 45.3403C110.341 45.6843 110.557 45.9683 110.845 46.1923C111.133 46.4083 111.489 46.5163 111.913 46.5163ZM122.522 47.6083C122.01 47.6083 121.57 47.5443 121.202 47.4163C120.842 47.2803 120.542 47.1083 120.302 46.9003C120.062 46.6843 119.87 46.4603 119.726 46.2283C119.582 45.9963 119.474 45.7763 119.402 45.5683C119.33 45.3523 119.282 45.1803 119.258 45.0523C119.242 44.9163 119.234 44.8483 119.234 44.8483H120.434C120.434 44.8483 120.446 44.9043 120.47 45.0163C120.494 45.1283 120.542 45.2683 120.614 45.4363C120.694 45.6043 120.81 45.7763 120.962 45.9523C121.114 46.1203 121.318 46.2603 121.574 46.3723C121.83 46.4843 122.154 46.5403 122.546 46.5403C123.138 46.5403 123.606 46.4003 123.95 46.1203C124.294 45.8323 124.466 45.4603 124.466 45.0043C124.466 44.6123 124.334 44.3083 124.07 44.0923C123.814 43.8763 123.446 43.7083 122.966 43.5883L121.79 43.3003C121.374 43.1963 120.986 43.0523 120.626 42.8683C120.274 42.6763 119.99 42.4283 119.774 42.1243C119.566 41.8123 119.462 41.4243 119.462 40.9603C119.462 40.4403 119.59 39.9963 119.846 39.6283C120.102 39.2603 120.45 38.9803 120.89 38.7883C121.33 38.5883 121.83 38.4883 122.39 38.4883C122.934 38.4883 123.386 38.5723 123.746 38.7403C124.106 38.9083 124.394 39.1163 124.61 39.3643C124.826 39.6043 124.986 39.8483 125.09 40.0963C125.194 40.3363 125.262 40.5403 125.294 40.7083C125.326 40.8763 125.342 40.9603 125.342 40.9603H124.19C124.19 40.9603 124.174 40.8883 124.142 40.7443C124.11 40.6003 124.034 40.4363 123.914 40.2523C123.794 40.0603 123.61 39.8923 123.362 39.7483C123.114 39.6043 122.778 39.5323 122.354 39.5323C121.778 39.5323 121.342 39.6683 121.046 39.9403C120.758 40.2123 120.614 40.5243 120.614 40.8763C120.614 41.1963 120.73 41.4563 120.962 41.6563C121.194 41.8483 121.514 41.9963 121.922 42.1003L123.194 42.4123C123.65 42.5243 124.062 42.6883 124.43 42.9043C124.798 43.1123 125.09 43.3843 125.306 43.7203C125.522 44.0483 125.63 44.4523 125.63 44.9323C125.63 45.4123 125.51 45.8563 125.27 46.2643C125.038 46.6723 124.69 47.0003 124.226 47.2483C123.77 47.4883 123.202 47.6083 122.522 47.6083ZM129.935 47.6083C129.415 47.6083 128.963 47.5163 128.579 47.3323C128.203 47.1403 127.891 46.8843 127.643 46.5643C127.403 46.2443 127.223 45.8923 127.103 45.5083C126.983 45.1163 126.923 44.7163 126.923 44.3083C126.923 43.9083 126.979 43.5123 127.091 43.1203C127.211 42.7283 127.391 42.3723 127.631 42.0523C127.879 41.7323 128.187 41.4803 128.555 41.2963C128.931 41.1043 129.375 41.0083 129.887 41.0083C130.431 41.0083 130.911 41.1323 131.327 41.3803C131.743 41.6283 132.071 41.9963 132.311 42.4843C132.551 42.9723 132.671 43.5843 132.671 44.3203V44.6563H128.075C128.099 45.0163 128.183 45.3483 128.327 45.6523C128.479 45.9483 128.691 46.1883 128.963 46.3723C129.235 46.5483 129.559 46.6363 129.935 46.6363C130.263 46.6363 130.527 46.5843 130.727 46.4803C130.935 46.3683 131.099 46.2403 131.219 46.0963C131.339 45.9523 131.419 45.8283 131.459 45.7243C131.507 45.6123 131.531 45.5563 131.531 45.5563H132.599C132.599 45.5563 132.579 45.6283 132.539 45.7723C132.499 45.9083 132.427 46.0763 132.323 46.2763C132.219 46.4763 132.067 46.6803 131.867 46.8883C131.667 47.0883 131.411 47.2603 131.099 47.4043C130.787 47.5403 130.399 47.6083 129.935 47.6083ZM128.087 43.7683H131.555C131.539 43.3523 131.451 43.0163 131.291 42.7603C131.131 42.4963 130.927 42.3003 130.679 42.1723C130.431 42.0443 130.167 41.9803 129.887 41.9803C129.383 41.9803 128.971 42.1443 128.651 42.4723C128.331 42.7923 128.143 43.2243 128.087 43.7683ZM134.227 47.4883V41.1283H135.367V41.9203H135.415C135.551 41.6803 135.751 41.4683 136.015 41.2843C136.279 41.1003 136.651 41.0083 137.131 41.0083C137.267 41.0083 137.391 41.0163 137.503 41.0323C137.615 41.0403 137.671 41.0443 137.671 41.0443V42.1363C137.671 42.1363 137.607 42.1323 137.479 42.1243C137.359 42.1083 137.231 42.1003 137.095 42.1003C136.543 42.1003 136.115 42.2603 135.811 42.5803C135.515 42.8923 135.367 43.4043 135.367 44.1163V47.4883H134.227ZM140.93 47.4883L138.506 41.1283H139.694L141.554 46.0963L143.378 41.1283H144.578L142.142 47.4883H140.93ZM146.584 39.9163C146.368 39.9163 146.188 39.8443 146.044 39.7003C145.908 39.5563 145.84 39.3843 145.84 39.1843C145.84 38.9763 145.908 38.8003 146.044 38.6563C146.188 38.5123 146.368 38.4403 146.584 38.4403C146.792 38.4403 146.968 38.5123 147.112 38.6563C147.256 38.8003 147.328 38.9763 147.328 39.1843C147.328 39.3843 147.256 39.5563 147.112 39.7003C146.968 39.8443 146.792 39.9163 146.584 39.9163ZM146.02 47.4883V41.1283H147.16V47.4883H146.02ZM152.016 47.6083C151.496 47.6083 151.04 47.5163 150.648 47.3323C150.256 47.1403 149.928 46.8883 149.664 46.5763C149.408 46.2563 149.212 45.9003 149.076 45.5083C148.948 45.1163 148.884 44.7163 148.884 44.3083C148.884 43.9003 148.948 43.5043 149.076 43.1203C149.204 42.7283 149.396 42.3723 149.652 42.0523C149.916 41.7323 150.244 41.4803 150.636 41.2963C151.028 41.1043 151.488 41.0083 152.016 41.0083C152.528 41.0083 152.952 41.0843 153.288 41.2363C153.624 41.3883 153.892 41.5803 154.092 41.8123C154.3 42.0363 154.452 42.2643 154.548 42.4963C154.652 42.7203 154.72 42.9083 154.752 43.0603C154.784 43.2123 154.8 43.2883 154.8 43.2883H153.696C153.696 43.2883 153.676 43.2243 153.636 43.0963C153.596 42.9603 153.52 42.8083 153.408 42.6403C153.296 42.4723 153.128 42.3243 152.904 42.1963C152.68 42.0603 152.384 41.9923 152.016 41.9923C151.576 41.9923 151.204 42.1043 150.9 42.3283C150.604 42.5443 150.38 42.8283 150.228 43.1803C150.084 43.5323 150.012 43.9083 150.012 44.3083C150.012 44.7083 150.084 45.0843 150.228 45.4363C150.38 45.7883 150.604 46.0763 150.9 46.3003C151.204 46.5163 151.576 46.6243 152.016 46.6243C152.384 46.6243 152.68 46.5603 152.904 46.4323C153.128 46.2963 153.296 46.1443 153.408 45.9763C153.52 45.8083 153.596 45.6603 153.636 45.5323C153.676 45.3963 153.696 45.3283 153.696 45.3283H154.8C154.8 45.3283 154.784 45.4043 154.752 45.5563C154.72 45.7083 154.652 45.9003 154.548 46.1323C154.452 46.3563 154.3 46.5843 154.092 46.8163C153.892 47.0403 153.624 47.2283 153.288 47.3803C152.952 47.5323 152.528 47.6083 152.016 47.6083ZM159.255 47.6083C158.735 47.6083 158.283 47.5163 157.899 47.3323C157.523 47.1403 157.211 46.8843 156.963 46.5643C156.723 46.2443 156.543 45.8923 156.423 45.5083C156.303 45.1163 156.243 44.7163 156.243 44.3083C156.243 43.9083 156.299 43.5123 156.411 43.1203C156.531 42.7283 156.711 42.3723 156.951 42.0523C157.199 41.7323 157.507 41.4803 157.875 41.2963C158.251 41.1043 158.695 41.0083 159.207 41.0083C159.751 41.0083 160.231 41.1323 160.647 41.3803C161.063 41.6283 161.391 41.9963 161.631 42.4843C161.871 42.9723 161.991 43.5843 161.991 44.3203V44.6563H157.395C157.419 45.0163 157.503 45.3483 157.647 45.6523C157.799 45.9483 158.011 46.1883 158.283 46.3723C158.555 46.5483 158.879 46.6363 159.255 46.6363C159.583 46.6363 159.847 46.5843 160.047 46.4803C160.255 46.3683 160.419 46.2403 160.539 46.0963C160.659 45.9523 160.739 45.8283 160.779 45.7243C160.827 45.6123 160.851 45.5563 160.851 45.5563H161.919C161.919 45.5563 161.899 45.6283 161.859 45.7723C161.819 45.9083 161.747 46.0763 161.643 46.2763C161.539 46.4763 161.387 46.6803 161.187 46.8883C160.987 47.0883 160.731 47.2603 160.419 47.4043C160.107 47.5403 159.719 47.6083 159.255 47.6083ZM157.407 43.7683H160.875C160.859 43.3523 160.771 43.0163 160.611 42.7603C160.451 42.4963 160.247 42.3003 159.999 42.1723C159.751 42.0443 159.487 41.9803 159.207 41.9803C158.703 41.9803 158.291 42.1443 157.971 42.4723C157.651 42.7923 157.463 43.2243 157.407 43.7683ZM165.875 47.6083C165.387 47.6083 164.983 47.5403 164.663 47.4043C164.351 47.2683 164.103 47.1003 163.919 46.9003C163.735 46.6923 163.599 46.4883 163.511 46.2883C163.423 46.0803 163.367 45.9083 163.343 45.7723C163.319 45.6363 163.307 45.5683 163.307 45.5683H164.459C164.459 45.5683 164.471 45.6243 164.495 45.7363C164.527 45.8403 164.587 45.9643 164.675 46.1083C164.771 46.2443 164.915 46.3683 165.107 46.4803C165.307 46.5843 165.571 46.6363 165.899 46.6363C166.275 46.6363 166.567 46.5483 166.775 46.3723C166.983 46.1883 167.087 45.9643 167.087 45.7003C167.087 45.4683 167.003 45.2843 166.835 45.1483C166.675 45.0123 166.443 44.9083 166.139 44.8363L165.275 44.6323C164.955 44.5523 164.655 44.4443 164.375 44.3083C164.095 44.1723 163.867 43.9883 163.691 43.7563C163.523 43.5163 163.439 43.2203 163.439 42.8683C163.439 42.3243 163.643 41.8803 164.051 41.5363C164.459 41.1843 164.991 41.0083 165.647 41.0083C166.087 41.0083 166.451 41.0723 166.739 41.2003C167.027 41.3203 167.255 41.4723 167.423 41.6563C167.599 41.8403 167.727 42.0243 167.807 42.2083C167.895 42.3923 167.951 42.5483 167.975 42.6763C167.999 42.7963 168.011 42.8563 168.011 42.8563H166.907C166.907 42.8563 166.895 42.8123 166.871 42.7243C166.847 42.6283 166.791 42.5243 166.703 42.4123C166.623 42.2923 166.499 42.1883 166.331 42.1003C166.163 42.0043 165.939 41.9563 165.659 41.9563C165.275 41.9563 164.995 42.0443 164.819 42.2203C164.643 42.3963 164.555 42.5883 164.555 42.7963C164.555 42.9963 164.635 43.1603 164.795 43.2883C164.963 43.4083 165.179 43.5003 165.443 43.5643L166.319 43.7683C166.863 43.8963 167.311 44.1083 167.663 44.4043C168.023 44.6923 168.203 45.1083 168.203 45.6523C168.203 46.0043 168.111 46.3323 167.927 46.6363C167.743 46.9323 167.479 47.1683 167.135 47.3443C166.791 47.5203 166.371 47.6083 165.875 47.6083ZM175.418 47.6083C174.898 47.6083 174.442 47.5163 174.05 47.3323C173.658 47.1403 173.33 46.8883 173.066 46.5763C172.81 46.2563 172.614 45.9003 172.478 45.5083C172.35 45.1163 172.286 44.7163 172.286 44.3083C172.286 43.9003 172.35 43.5043 172.478 43.1203C172.606 42.7283 172.798 42.3723 173.054 42.0523C173.318 41.7323 173.646 41.4803 174.038 41.2963C174.43 41.1043 174.89 41.0083 175.418 41.0083C175.93 41.0083 176.354 41.0843 176.69 41.2363C177.026 41.3883 177.294 41.5803 177.494 41.8123C177.702 42.0363 177.854 42.2643 177.95 42.4963C178.054 42.7203 178.122 42.9083 178.154 43.0603C178.186 43.2123 178.202 43.2883 178.202 43.2883H177.098C177.098 43.2883 177.078 43.2243 177.038 43.0963C176.998 42.9603 176.922 42.8083 176.81 42.6403C176.698 42.4723 176.53 42.3243 176.306 42.1963C176.082 42.0603 175.786 41.9923 175.418 41.9923C174.978 41.9923 174.606 42.1043 174.302 42.3283C174.006 42.5443 173.782 42.8283 173.63 43.1803C173.486 43.5323 173.414 43.9083 173.414 44.3083C173.414 44.7083 173.486 45.0843 173.63 45.4363C173.782 45.7883 174.006 46.0763 174.302 46.3003C174.606 46.5163 174.978 46.6243 175.418 46.6243C175.786 46.6243 176.082 46.5603 176.306 46.4323C176.53 46.2963 176.698 46.1443 176.81 45.9763C176.922 45.8083 176.998 45.6603 177.038 45.5323C177.078 45.3963 177.098 45.3283 177.098 45.3283H178.202C178.202 45.3283 178.186 45.4043 178.154 45.5563C178.122 45.7083 178.054 45.9003 177.95 46.1323C177.854 46.3563 177.702 46.5843 177.494 46.8163C177.294 47.0403 177.026 47.2283 176.69 47.3803C176.354 47.5323 175.93 47.6083 175.418 47.6083ZM182.778 47.6083C182.098 47.6083 181.526 47.4523 181.062 47.1403C180.598 46.8203 180.246 46.4083 180.006 45.9043C179.766 45.4003 179.646 44.8683 179.646 44.3083C179.646 43.7403 179.766 43.2083 180.006 42.7123C180.246 42.2083 180.598 41.8003 181.062 41.4883C181.526 41.1683 182.098 41.0083 182.778 41.0083C183.458 41.0083 184.03 41.1683 184.494 41.4883C184.958 41.8003 185.31 42.2083 185.55 42.7123C185.79 43.2083 185.91 43.7403 185.91 44.3083C185.91 44.8683 185.79 45.4003 185.55 45.9043C185.31 46.4083 184.958 46.8203 184.494 47.1403C184.03 47.4523 183.458 47.6083 182.778 47.6083ZM182.778 46.6123C183.21 46.6123 183.57 46.5043 183.858 46.2883C184.154 46.0643 184.374 45.7763 184.518 45.4243C184.67 45.0723 184.746 44.7003 184.746 44.3083C184.746 43.9083 184.67 43.5363 184.518 43.1923C184.374 42.8403 184.154 42.5563 183.858 42.3403C183.57 42.1163 183.21 42.0043 182.778 42.0043C182.354 42.0043 181.994 42.1163 181.698 42.3403C181.402 42.5563 181.178 42.8403 181.026 43.1923C180.882 43.5363 180.81 43.9083 180.81 44.3083C180.81 44.7003 180.882 45.0723 181.026 45.4243C181.178 45.7763 181.402 46.0643 181.698 46.2883C181.994 46.5043 182.354 46.6123 182.778 46.6123ZM187.465 47.4883V41.1283H188.605V42.0523H188.653C188.717 41.9323 188.817 41.7923 188.953 41.6323C189.089 41.4643 189.273 41.3203 189.505 41.2003C189.745 41.0723 190.045 41.0083 190.405 41.0083C190.877 41.0083 191.273 41.1243 191.593 41.3563C191.921 41.5803 192.165 41.8843 192.325 42.2683H192.337C192.513 41.9163 192.761 41.6203 193.081 41.3803C193.409 41.1323 193.833 41.0083 194.353 41.0083C195.041 41.0083 195.569 41.2443 195.937 41.7163C196.313 42.1803 196.501 42.7803 196.501 43.5163V47.4883H195.361V43.5763C195.361 43.1043 195.249 42.7243 195.025 42.4363C194.801 42.1403 194.477 41.9923 194.053 41.9923C193.685 41.9923 193.389 42.0923 193.165 42.2923C192.949 42.4923 192.793 42.7403 192.697 43.0363C192.601 43.3323 192.553 43.6283 192.553 43.9243V47.4883H191.413V43.5763C191.413 43.1043 191.301 42.7243 191.077 42.4363C190.861 42.1403 190.537 41.9923 190.105 41.9923C189.737 41.9923 189.441 42.0923 189.217 42.2923C189.001 42.4923 188.845 42.7443 188.749 43.0483C188.653 43.3443 188.605 43.6363 188.605 43.9243V47.4883H187.465ZM198.296 49.8403V41.1283H199.436V42.1363H199.508C199.604 41.9843 199.732 41.8203 199.892 41.6443C200.06 41.4683 200.28 41.3203 200.552 41.2003C200.824 41.0723 201.16 41.0083 201.56 41.0083C202.04 41.0083 202.46 41.1043 202.82 41.2963C203.18 41.4803 203.48 41.7323 203.72 42.0523C203.96 42.3643 204.14 42.7163 204.26 43.1083C204.38 43.5003 204.44 43.9003 204.44 44.3083C204.44 44.7163 204.38 45.1163 204.26 45.5083C204.14 45.9003 203.96 46.2563 203.72 46.5763C203.48 46.8883 203.18 47.1403 202.82 47.3323C202.46 47.5163 202.04 47.6083 201.56 47.6083C201.16 47.6083 200.824 47.5443 200.552 47.4163C200.28 47.2883 200.06 47.1363 199.892 46.9603C199.732 46.7843 199.604 46.6243 199.508 46.4803H199.436V49.8403H198.296ZM199.46 44.3083C199.46 44.6923 199.528 45.0643 199.664 45.4243C199.808 45.7763 200.02 46.0683 200.3 46.3003C200.588 46.5243 200.944 46.6363 201.368 46.6363C201.8 46.6363 202.156 46.5243 202.436 46.3003C202.724 46.0683 202.936 45.7763 203.072 45.4243C203.216 45.0643 203.288 44.6923 203.288 44.3083C203.288 43.9163 203.216 43.5443 203.072 43.1923C202.936 42.8403 202.724 42.5523 202.436 42.3283C202.156 42.0963 201.8 41.9803 201.368 41.9803C200.944 41.9803 200.588 42.0963 200.3 42.3283C200.02 42.5523 199.808 42.8403 199.664 43.1923C199.528 43.5443 199.46 43.9163 199.46 44.3083ZM208.705 41.0083C209.105 41.0083 209.441 41.0723 209.713 41.2003C209.985 41.3283 210.205 41.4803 210.373 41.6563C210.541 41.8243 210.669 41.9843 210.757 42.1363H210.829V41.1283H211.969V47.4883H210.829V46.4803H210.757C210.669 46.6323 210.541 46.7963 210.373 46.9723C210.205 47.1483 209.985 47.3003 209.713 47.4283C209.441 47.5483 209.105 47.6083 208.705 47.6083C208.225 47.6083 207.805 47.5163 207.445 47.3323C207.085 47.1403 206.785 46.8883 206.545 46.5763C206.305 46.2563 206.125 45.9003 206.005 45.5083C205.885 45.1163 205.825 44.7163 205.825 44.3083C205.825 43.9003 205.885 43.5003 206.005 43.1083C206.125 42.7163 206.305 42.3643 206.545 42.0523C206.785 41.7323 207.085 41.4803 207.445 41.2963C207.805 41.1043 208.225 41.0083 208.705 41.0083ZM208.897 41.9803C208.473 41.9803 208.117 42.0963 207.829 42.3283C207.541 42.5523 207.325 42.8403 207.181 43.1923C207.045 43.5443 206.977 43.9163 206.977 44.3083C206.977 44.6923 207.045 45.0643 207.181 45.4243C207.325 45.7763 207.541 46.0683 207.829 46.3003C208.117 46.5243 208.473 46.6363 208.897 46.6363C209.321 46.6363 209.673 46.5243 209.953 46.3003C210.241 46.0683 210.453 45.7763 210.589 45.4243C210.733 45.0643 210.805 44.6923 210.805 44.3083C210.805 43.9163 210.733 43.5443 210.589 43.1923C210.453 42.8403 210.241 42.5523 209.953 42.3283C209.673 42.0963 209.321 41.9803 208.897 41.9803ZM213.645 47.4883V41.1283H214.785V42.0523H214.857C214.913 41.9563 215.005 41.8243 215.133 41.6563C215.269 41.4883 215.461 41.3403 215.709 41.2123C215.957 41.0763 216.269 41.0083 216.645 41.0083C217.109 41.0083 217.505 41.1163 217.833 41.3323C218.161 41.5403 218.409 41.8243 218.577 42.1843C218.753 42.5443 218.841 42.9483 218.841 43.3963V47.4883H217.701V43.4683C217.701 43.0443 217.581 42.6923 217.341 42.4123C217.109 42.1323 216.769 41.9923 216.321 41.9923C215.961 41.9923 215.669 42.0843 215.445 42.2683C215.221 42.4443 215.053 42.6803 214.941 42.9763C214.837 43.2643 214.785 43.5723 214.785 43.9003V47.4883H213.645ZM220.4 49.8283C220.216 49.8283 220.06 49.8203 219.932 49.8043C219.804 49.7883 219.74 49.7803 219.74 49.7803V48.8083C219.74 48.8083 219.804 48.8123 219.932 48.8203C220.068 48.8363 220.212 48.8443 220.364 48.8443C220.836 48.8443 221.22 48.7443 221.516 48.5443C221.82 48.3523 222.076 48.0323 222.284 47.5843L219.824 41.1283H221.012L222.848 46.0963L224.696 41.1283H225.896L223.436 47.5003C223.124 48.3003 222.72 48.8883 222.224 49.2643C221.736 49.6403 221.128 49.8283 220.4 49.8283Z"
      fill="#4D4D4D"
    />
  </svg>